REM DIRINDEX 1\4,1\2\5,1\2\6,1\2\7,1\3\8,1\3\9,1\3\10,1\3\11
REM DIRNAME folder01,folder02,folder03,folder04,folder05,folder06,folder07,folder08,folder09,folder10,folder11
TITLE ""
FILE "t_k_011-021.mp3" MP3
  TRACK 01 AUDIO
    TITLE "5:cjc108_0032"
    INDEX 01 00:00:00
  TRACK 02 AUDIO
    TITLE "0:"
    INDEX 01 00:00:72
  TRACK 03 AUDIO
    TITLE "6:cjc108_0033"
    INDEX 01 00:00:74
  TRACK 04 AUDIO
    TITLE "0:"
    INDEX 01 00:03:12
  TRACK 05 AUDIO
    TITLE "7:cjc108_0034"
    INDEX 01 00:03:25
  TRACK 06 AUDIO
    TITLE "0:"
    INDEX 01 00:08:72
  TRACK 07 AUDIO
    TITLE "5:cjc108_0035"
    INDEX 01 00:09:57
  TRACK 08 AUDIO
    TITLE "0:"
    INDEX 01 00:10:74
  TRACK 09 AUDIO
    TITLE "6:cjc108_0036"
    INDEX 01 00:11:25
  TRACK 10 AUDIO
    TITLE "0:"
    INDEX 01 00:14:49
  TRACK 11 AUDIO
    TITLE "7:cjc108_0037"
    INDEX 01 00:14:60
  TRACK 12 AUDIO
    TITLE "0:"
    INDEX 01 00:20:37
  TRACK 13 AUDIO
    TITLE "5:cjc108_0038"
    INDEX 01 00:21:31
  TRACK 14 AUDIO
    TITLE "0:"
    INDEX 01 00:22:42
  TRACK 15 AUDIO
    TITLE "6:cjc108_0039"
    INDEX 01 00:22:54
  TRACK 16 AUDIO
    TITLE "0:"
    INDEX 01 00:24:06
  TRACK 17 AUDIO
    TITLE "7:cjc108_0040"
    INDEX 01 00:24:16
  TRACK 18 AUDIO
    TITLE "0:"
    INDEX 01 00:29:31
  TRACK 19 AUDIO
    TITLE "5:cjc108_0041"
    INDEX 01 00:30:01
  TRACK 20 AUDIO
    TITLE "0:"
    INDEX 01 00:31:26
  TRACK 21 AUDIO
    TITLE "6:cjc108_0042"
    INDEX 01 00:31:27
  TRACK 22 AUDIO
    TITLE "0:"
    INDEX 01 00:33:64
  TRACK 23 AUDIO
    TITLE "7:cjc108_0043"
    INDEX 01 00:34:00
  TRACK 24 AUDIO
    TITLE "0:"
    INDEX 01 00:39:07
  TRACK 25 AUDIO
    TITLE "5:cjc108_0044"
    INDEX 01 00:39:56
  TRACK 26 AUDIO
    TITLE "0:"
    INDEX 01 00:41:00
  TRACK 27 AUDIO
    TITLE "6:cjc108_0045"
    INDEX 01 00:41:02
  TRACK 28 AUDIO
    TITLE "0:"
    INDEX 01 00:43:40
  TRACK 29 AUDIO
    TITLE "7:cjc108_0046"
    INDEX 01 00:43:54
  TRACK 30 AUDIO
    TITLE "0:"
    INDEX 01 00:50:50
  TRACK 31 AUDIO
    TITLE "5:cjc108_0047"
    INDEX 01 00:51:26
  TRACK 32 AUDIO
    TITLE "0:"
    INDEX 01 00:52:37
  TRACK 33 AUDIO
    TITLE "6:cjc108_0048"
    INDEX 01 00:52:49
  TRACK 34 AUDIO
    TITLE "0:"
    INDEX 01 00:55:16
  TRACK 35 AUDIO
    TITLE "7:cjc108_0049"
    INDEX 01 00:55:28
  TRACK 36 AUDIO
    TITLE "0:"
    INDEX 01 01:00:21
  TRACK 37 AUDIO
    TITLE "5:cjc108_0050"
    INDEX 01 01:01:03
  TRACK 38 AUDIO
    TITLE "0:"
    INDEX 01 01:02:08
  TRACK 39 AUDIO
    TITLE "6:cjc108_0051"
    INDEX 01 01:02:18
  TRACK 40 AUDIO
    TITLE "0:"
    INDEX 01 01:04:31
  TRACK 41 AUDIO
    TITLE "7:cjc108_0052"
    INDEX 01 01:04:41
  TRACK 42 AUDIO
    TITLE "0:"
    INDEX 01 01:09:57
  TRACK 43 AUDIO
    TITLE "5:cjc108_0053"
    INDEX 01 01:10:31
  TRACK 44 AUDIO
    TITLE "0:"
    INDEX 01 01:11:31
  TRACK 45 AUDIO
    TITLE "6:cjc108_0054"
    INDEX 01 01:11:52
  TRACK 46 AUDIO
    TITLE "0:"
    INDEX 01 01:12:54
  TRACK 47 AUDIO
    TITLE "7:cjc108_0055"
    INDEX 01 01:12:71
  TRACK 48 AUDIO
    TITLE "0:"
    INDEX 01 01:17:12
  TRACK 49 AUDIO
    TITLE "5:cjc108_0056"
    INDEX 01 01:17:65
  TRACK 50 AUDIO
    TITLE "0:"
    INDEX 01 01:18:72
  TRACK 51 AUDIO
    TITLE "6:cjc108_0057"
    INDEX 01 01:19:09
  TRACK 52 AUDIO
    TITLE "0:"
    INDEX 01 01:20:22
  TRACK 53 AUDIO
    TITLE "7:cjc108_0058"
    INDEX 01 01:20:34
  TRACK 54 AUDIO
    TITLE "0:"
    INDEX 01 01:25:06
  TRACK 55 AUDIO
    TITLE "5:cjc108_0059"
    INDEX 01 01:25:53
  TRACK 56 AUDIO
    TITLE "0:"
    INDEX 01 01:26:66
  TRACK 57 AUDIO
    TITLE "6:cjc108_0060"
    INDEX 01 01:26:68
  TRACK 58 AUDIO
    TITLE "0:"
    INDEX 01 01:28:18
  TRACK 59 AUDIO
    TITLE "7:cjc108_0061"
    INDEX 01 01:28:25
  TRACK 60 AUDIO
    TITLE "0:"
    INDEX 01 01:35:31
  TRACK 61 AUDIO
    TITLE "5:cjc108_0062"
    INDEX 01 01:36:11
  TRACK 62 AUDIO
    TITLE "0:"
    INDEX 01 01:37:19
  TRACK 63 AUDIO
    TITLE "6:cjc108_0063"
    INDEX 01 01:37:32
  TRACK 64 AUDIO
    TITLE "0:"
    INDEX 01 01:39:51
  TRACK 65 AUDIO
    TITLE "7:cjc108_0064"
    INDEX 01 01:39:64
  TRACK 66 AUDIO
    TITLE "0:"
    INDEX 01 01:45:16
